# xmcd
#
# Track frame offsets: 
#        150
#        8711
#        27181
#        37690
#        45546
#        54128
#        67678
#        77995
#        89300
#        99355
#
# Disc length: 1467 seconds
#
# Revision: 1
# Processed by: cddbd v1.5.2PL0 Copyright (c) Steve Scherf et al.
# Submitted via: ExactAudioCopy v0.95b4
#
DISCID=6005b90a
DTITLE=Johhny Cash - Original American Classics: Get Rhythm
DYEAR=2005
DGENRE=Country
TTITLE0=Guess Things Happen That Way
TTITLE1=One Piece At A Time
TTITLE2=There You Go
TTITLE3=Come In Stranger
TTITLE4=Wreck Of The Old '97
TTITLE5=Look At Them Beans
TTITLE6=Get Rhythm
TTITLE7=Mean Eyed Cat
TTITLE8=Born To Lose
TTITLE9=Cold Cold Heat
EXTD=YEAR: 2005
EXTT0=
EXTT1=
EXTT2=
EXTT3=
EXTT4=
EXTT5=
EXTT6=
EXTT7=
EXTT8=
EXTT9=
PLAYORDER=
